<svg width="55" height="55" viewBox="0 0 55 55" fill="none" xmlns="http://www.w3.org/2000/svg">
<path fill-rule="evenodd" clip-rule="evenodd" d="M27.5 42.5C35.7842 42.5 42.5 35.7842 42.5 27.5C42.5 19.2157 35.7842 12.5 27.5 12.5C19.2157 12.5 12.5 19.2157 12.5 27.5C12.5 35.7842 19.2157 42.5 27.5 42.5ZM27.5 37.5C33.0228 37.5 37.5 33.0228 37.5 27.5C37.5 21.9771 33.0228 17.5 27.5 17.5C21.9771 17.5 17.5 21.9771 17.5 27.5C17.5 33.0228 21.9771 37.5 27.5 37.5Z" fill="white"/>
<path fill-rule="evenodd" clip-rule="evenodd" d="M1.6349 8.19015C0 11.3988 0 15.5992 0 24V31C0 39.4007 0 43.6012 1.6349 46.8097C3.073 49.6322 5.3677 51.927 8.19015 53.365C11.3988 55 15.5992 55 24 55H31C39.4007 55 43.6012 55 46.8097 53.365C49.6322 51.927 51.927 49.6322 53.365 46.8097C55 43.6012 55 39.4007 55 31V24C55 15.5992 55 11.3988 53.365 8.19015C51.927 5.3677 49.6322 3.073 46.8097 1.6349C43.6012 0 39.4007 0 31 0H24C15.5992 0 11.3988 0 8.19015 1.6349C5.3677 3.073 3.073 5.3677 1.6349 8.19015ZM31 5H24C19.7171 5 16.8056 5.0039 14.5552 5.18775C12.3631 5.36685 11.2421 5.69148 10.4601 6.08993C8.57848 7.04868 7.04868 8.57848 6.08993 10.4601C5.69148 11.2421 5.36685 12.3631 5.18775 14.5552C5.0039 16.8056 5 19.7171 5 24V31C5 35.283 5.0039 38.1943 5.18775 40.4448C5.36685 42.637 5.69148 43.758 6.08993 44.54C7.04868 46.4215 8.57848 47.9512 10.4601 48.91C11.2421 49.3085 12.3631 49.6333 14.5552 49.8123C16.8056 49.996 19.7171 50 24 50H31C35.283 50 38.1943 49.996 40.4448 49.8123C42.637 49.6333 43.758 49.3085 44.54 48.91C46.4215 47.9512 47.9512 46.4215 48.91 44.54C49.3085 43.758 49.6333 42.637 49.8123 40.4448C49.996 38.1943 50 35.283 50 31V24C50 19.7171 49.996 16.8056 49.8123 14.5552C49.6333 12.3631 49.3085 11.2421 48.91 10.4601C47.9512 8.57848 46.4215 7.04868 44.54 6.08993C43.758 5.69148 42.637 5.36685 40.4448 5.18775C38.1943 5.0039 35.283 5 31 5Z" fill="white"/>
</svg>
