<svg width="65" height="66" viewBox="0 0 65 66" fill="none" xmlns="http://www.w3.org/2000/svg">
<path fill-rule="evenodd" clip-rule="evenodd" d="M46.2779 18.4065C45.4432 18.9862 44.5183 19.3961 43.5034 19.6365C43.5694 19.7109 43.6356 19.7856 43.7016 19.8601C42.9116 19.9717 42.1189 20.009 41.3235 19.9719C41.1621 21.0048 41.0961 22.0485 41.1253 23.1026C40.8294 24.8109 40.5652 26.5254 40.3326 28.246C39.2129 27.9135 38.09 27.578 36.9636 27.2397C35.7731 27.1449 34.5841 27.0331 33.3964 26.9042C33.066 26.9787 32.7359 27.0534 32.4055 27.1279C35.0902 27.3425 37.5345 28.2744 39.738 29.9232C40.0022 30.1468 40.0022 30.3704 39.738 30.594C38.4939 31.3179 37.1726 31.7652 35.7745 31.9358C32.85 32.1708 29.9433 32.0216 27.0547 31.4885C26.4079 31.2383 25.8793 30.8284 25.4693 30.2586C24.9077 27.911 24.5113 25.5256 24.2802 23.1026C24.1911 22.0512 24.0589 21.0077 23.8839 19.9719C23.0226 20.009 22.1639 19.9717 21.3076 19.8601C20.8629 19.3679 20.3343 19.0325 19.7222 18.8538C19.282 18.3634 19.0179 17.767 18.9295 17.0648C18.5894 16.9537 18.259 16.879 17.9386 16.8412C17.5767 15.9084 17.2463 15.0139 16.9477 14.1577C16.4081 12.0614 16.8044 10.1979 18.1368 8.5671C18.9237 7.98131 19.7824 7.49679 20.7131 7.11354C21.7018 7.00189 22.6926 6.96463 23.6857 7.00173C23.7888 8.12752 23.9538 9.24564 24.1812 10.3561C24.3381 10.9389 24.6354 11.3862 25.073 11.6978C25.5882 12.5322 26.2818 13.1286 27.1538 13.4868C27.2529 13.4124 27.352 13.3377 27.4511 13.2632C26.3417 12.2705 25.5819 11.0034 25.172 9.46159C24.6084 4.58248 26.4251 1.48903 30.6219 0.181207C33.9158 -0.447265 36.7232 0.559041 39.0444 3.20013C40.4669 5.68204 40.6651 8.29097 39.639 11.027C39.0444 11.6978 38.4499 12.3687 37.8554 13.0396C37.719 13.2256 37.7521 13.3746 37.9544 13.4868C39.3573 12.856 40.3151 11.7379 40.828 10.1325C41.1209 8.96007 41.2862 7.76742 41.3235 6.55448C46.3086 6.17962 48.7196 8.78857 48.5569 14.3813C48.3371 15.3248 48.007 16.2193 47.566 17.0648C47.2618 17.6896 46.8324 18.1369 46.2779 18.4065Z" fill="#FC7D7F"/>
<path fill-rule="evenodd" clip-rule="evenodd" d="M25.0729 11.6978C24.6353 11.3862 24.3381 10.939 24.1811 10.3561C23.9538 9.24566 23.7887 8.12754 23.6857 7.00175C22.6926 6.96465 21.7017 7.00191 20.713 7.11356C19.7824 7.49681 18.9237 7.98133 18.1367 8.56711C19.7152 6.7444 21.631 6.11081 23.8838 6.66631C24.0172 8.43258 24.4136 10.1098 25.0729 11.6978Z" fill="#D47F8F"/>
<path fill-rule="evenodd" clip-rule="evenodd" d="M16.9477 14.1576C17.2464 15.0138 17.5767 15.9083 17.9386 16.8411C18.259 16.8789 18.5894 16.9536 18.9295 17.0647C19.0179 17.7669 19.282 18.3633 19.7222 18.8537C20.3344 19.0324 20.8629 19.3678 21.3076 19.86C22.1639 19.9716 23.0226 20.0089 23.8839 19.9718C24.0589 21.0076 24.1911 22.0511 24.2803 23.1025C23.9917 22.3362 23.7935 21.5162 23.6857 20.6427C20.7902 20.483 18.6433 18.9923 17.245 16.1702C17.0173 15.5233 16.9182 14.8524 16.9477 14.1576Z" fill="#E17C8B"/>
<path fill-rule="evenodd" clip-rule="evenodd" d="M38.3507 19.7483C34.6652 17.4262 30.9658 17.3888 27.2528 19.6365C26.405 20.3467 26.4712 20.533 27.4509 20.1955C27.4509 20.4192 27.4509 20.6428 27.4509 20.8664C26.6127 21.016 26.2494 20.6432 26.361 19.7483C29.5984 17.5257 33.0665 17.1158 36.7653 18.5184C37.3731 18.829 37.9014 19.2389 38.3507 19.7483Z" fill="white"/>
<path fill-rule="evenodd" clip-rule="evenodd" d="M46.2779 18.4065C46.1913 18.7585 45.9932 19.0194 45.6834 19.1892C44.4743 20.0143 43.1531 20.4616 41.7199 20.5309C41.4755 21.3979 41.2773 22.2553 41.1253 23.1026C41.0962 22.0484 41.1622 21.0048 41.3235 19.9719C42.119 20.009 42.9117 19.9716 43.7016 19.86C43.6356 19.7856 43.5695 19.7109 43.5035 19.6364C44.5183 19.396 45.4432 18.9861 46.2779 18.4065Z" fill="#DB7E8F"/>
<path fill-rule="evenodd" clip-rule="evenodd" d="M21.1095 27.5751C14.7583 28.2232 8.48288 29.304 2.28271 30.8177C7.23971 28.7668 12.3261 27.2388 17.5423 26.2334C18.7247 26.0216 19.9137 25.8725 21.1095 25.7861C21.1095 26.3825 21.1095 26.9787 21.1095 27.5751Z" fill="#25396E"/>
<path fill-rule="evenodd" clip-rule="evenodd" d="M45.4851 25.7861C46.1048 26.0279 46.7654 26.1768 47.4669 26.2334C48.781 26.5053 50.1023 26.7289 51.4304 26.9043C51.9071 27.1878 52.4356 27.337 53.0159 27.3515C56.412 28.3712 59.781 29.5267 63.1229 30.8177C56.8508 29.3277 50.5091 28.2469 44.0979 27.5751C44.0979 26.9787 44.0979 26.3825 44.0979 25.7861C44.5602 25.7861 45.0228 25.7861 45.4851 25.7861Z" fill="#25396E"/>
<path fill-rule="evenodd" clip-rule="evenodd" d="M31.0183 35.8492C31.0183 38.6072 31.0183 41.3653 31.0183 44.1233C31.351 44.1714 31.5492 44.0222 31.6128 43.676C32.6976 41.7587 34.2171 41.0131 36.1709 41.4398C37.1899 42.7578 37.1899 44.0996 36.1709 45.465C35.7297 45.9928 35.2343 46.44 34.6846 46.8068C35.5492 50.0574 37.1017 52.8527 39.3417 55.1927C39.9363 55.4163 40.5308 55.6399 41.1253 55.8635C39.6721 56.6089 38.2187 56.6089 36.7654 55.8635C35.8076 55.0809 34.9818 54.149 34.2882 53.0682C33.3819 51.284 32.5561 49.4576 31.811 47.5895C32.705 46.7285 33.4646 45.7222 34.09 44.5705C34.2278 44.0737 34.3928 43.5891 34.5855 43.117C34.4965 42.6065 34.2321 42.271 33.7928 42.1107C33.1667 42.2572 32.6713 42.6299 32.3064 43.2288C31.8568 44.02 31.4604 44.84 31.1174 45.6887C31.0841 47.8542 30.985 50.016 30.8201 52.1737C29.9438 52.7883 29.1182 52.7138 28.3429 51.9501C28.2769 46.8068 28.2107 41.6634 28.1447 36.5201C27.9127 36.2086 27.6154 36.0221 27.2529 35.961C28.5373 35.0131 29.7924 34.9757 31.0183 35.8492Z" fill="#FC7D7F"/>
<path fill-rule="evenodd" clip-rule="evenodd" d="M5.25524 51.5029C5.09452 46.8909 4.99543 42.2695 4.95797 37.6382C4.63138 37.2965 4.23503 37.1474 3.76891 37.191C3.26475 37.1543 2.83544 37.3035 2.48076 37.6382C1.2241 38.2709 0.82775 39.2772 1.2917 40.6572C1.94902 40.7685 2.6096 40.8059 3.27347 40.769C3.11889 43.0929 2.16101 43.6148 0.399906 42.3343C-0.414442 40.3076 0.0149279 38.7049 1.68806 37.5264C4.64109 36.3086 7.67974 35.9358 10.8042 36.4083C13.4201 37.0557 14.2459 38.8076 13.2814 41.6635C12.7727 42.386 12.1451 42.9451 11.3987 43.3406C14.6851 44.4554 15.6098 46.729 14.1732 50.1612C13.3763 51.6691 12.1873 52.4517 10.606 52.5092C9.54914 52.6584 8.49206 52.6584 7.43519 52.5092C6.61691 52.3645 5.8904 52.0291 5.25524 51.5029Z" fill="#FC7D7F"/>
<path fill-rule="evenodd" clip-rule="evenodd" d="M64.312 40.9926C64.5266 41.0013 64.7248 41.076 64.9065 41.2162C65.3556 46.0145 64.2987 50.3378 61.7357 54.1864C60.0734 56.4293 57.9594 57.5103 55.394 57.4289C54.4986 57.0136 54.3996 56.4546 55.0967 55.7517C55.9219 56.9081 56.9459 57.1688 58.1685 56.5344C59.0609 55.7873 59.9196 55.0046 60.7448 54.1864C59.7497 50.1837 58.4616 46.3076 56.8803 42.5579C56.5674 42.2133 56.204 41.9523 55.7904 41.7752C57.158 40.9331 58.4461 41.0449 59.6548 42.1107C60.9168 44.8995 61.9077 47.8066 62.6275 50.832C64.1294 47.7972 64.4927 44.592 63.7174 41.2162C63.9733 41.2692 64.1715 41.1947 64.312 40.9926Z" fill="#FC7D7F"/>
<path fill-rule="evenodd" clip-rule="evenodd" d="M19.7222 41.216C20.7813 41.1789 21.8382 41.2163 22.8931 41.3278C23.9969 41.7538 24.6905 42.6112 24.9739 43.8995C25.073 46.4327 25.1061 48.9673 25.073 51.5027C25.3451 51.4676 25.6095 51.505 25.8657 51.6145C24.4284 53.0547 23.1733 52.8682 22.1004 51.0555C20.7306 52.7671 19.2113 52.9907 17.5423 51.7263C16.5469 49.7846 16.877 48.1819 18.5332 46.9184C19.4412 46.403 20.3661 45.9557 21.3077 45.5767C22.0526 44.7397 22.2839 43.7334 22.0013 42.5578C21.1277 41.7919 20.1699 41.68 19.1277 42.2223C18.5358 42.9397 18.6679 43.3496 19.5241 43.4523C19.5241 43.8995 19.5241 44.3468 19.5241 44.794C17.7829 44.892 17.3534 44.0722 18.2359 42.3341C18.7401 41.939 19.2355 41.5662 19.7222 41.216Z" fill="#FC7D7F"/>
<path fill-rule="evenodd" clip-rule="evenodd" d="M42.3143 41.2161C43.2485 41.143 44.1732 41.2177 45.0888 41.4397C46.3389 42.0949 46.6031 43.1013 45.8815 44.4586C44.4774 45.4187 43.0573 46.3505 41.6207 47.2539C41.4921 49.6467 42.483 50.9885 44.5934 51.2792C45.2559 51.2749 45.8504 51.0513 46.377 50.6083C46.4093 51.0303 46.244 51.3657 45.8815 51.6146C43.2252 53.3034 40.9461 52.8188 39.0444 50.1611C37.7606 46.0417 38.8506 43.0601 42.3143 41.2161Z" fill="#FC7D7F"/>
<path fill-rule="evenodd" clip-rule="evenodd" d="M51.827 44.1232C51.691 46.7848 51.5591 49.4683 51.4306 52.1737C50.48 52.8452 49.5882 52.7705 48.7552 51.95C48.6562 48.7457 48.6231 45.5403 48.6562 42.3342C47.196 42.3514 47.196 42.016 48.6562 41.3279C50.3922 40.7557 51.4162 41.4639 51.7279 43.4523C52.2586 42.7419 52.8203 42.071 53.4124 41.4397C55.1718 41.0077 55.6673 41.753 54.8987 43.676C54.8246 43.4711 54.7255 43.2846 54.6015 43.1169C53.4431 42.7392 52.5182 43.0746 51.827 44.1232Z" fill="#FC7D7F"/>
<path fill-rule="evenodd" clip-rule="evenodd" d="M8.82248 36.7436C9.63203 36.7344 10.2597 37.107 10.7052 37.8617C11.8072 40.4023 11.2456 42.266 9.02065 43.4523C10.9856 44.0435 11.9105 45.4971 11.7951 47.8129C11.789 48.9675 11.5579 50.0485 11.1015 51.0555C10.3597 51.8961 9.46794 52.1571 8.42612 51.8382C8.12807 51.5048 7.96298 51.0948 7.93068 50.6082C7.7985 46.3594 7.7985 42.1105 7.93068 37.8617C8.13381 37.3726 8.43108 36.9998 8.82248 36.7436Z" fill="white"/>
<path fill-rule="evenodd" clip-rule="evenodd" d="M42.7158 42C42.3505 42.8563 42.7787 43.6018 44 44.2362C43.5448 44.4384 42.9027 44.5129 42.0737 44.4599C41.8715 43.5942 42.0853 42.7742 42.7158 42Z" fill="#FFE6FD"/>
<path fill-rule="evenodd" clip-rule="evenodd" d="M20.7131 46.1358C21.1673 46.0786 21.5968 46.1531 22.0013 46.3595C22.1334 47.7012 22.1334 49.043 22.0013 50.3847C21.5377 51.3604 20.9101 51.5095 20.1186 50.8319C19.4468 49.1572 19.6449 47.5919 20.7131 46.1358Z" fill="white"/>
<path fill-rule="evenodd" clip-rule="evenodd" d="M43.7014 62.4604C44.251 62.7191 44.8455 62.8683 45.485 62.9076C48.578 63.3348 51.6828 63.4466 54.7993 63.2431C57.2617 62.8466 59.6398 62.1757 61.9337 61.2305C59.9389 62.9515 57.6929 64.0696 55.1957 64.5848C52.1049 65.1861 49.0001 65.2979 45.8814 64.9202C44.1977 64.5633 42.4803 64.2653 40.7288 64.0257C38.166 63.3573 35.5897 62.7612 32.9999 62.2368C32.6158 61.8649 32.1533 61.7159 31.6126 61.7895C24.382 59.6568 17.0494 59.0231 9.615 59.8887C7.89602 60.3954 6.17842 60.8427 4.4624 61.2305C9.62551 58.3055 15.1083 57.262 20.9111 58.0997C22.8384 58.2151 24.7539 58.4387 26.6582 58.7706C32.2912 60.204 37.9721 61.434 43.7014 62.4604Z" fill="#25396E"/>
</svg>
