<svg width="193" height="187" viewBox="0 0 193 187" fill="none" xmlns="http://www.w3.org/2000/svg">
<path d="M127.134 10.5437C127.396 10.7719 127.658 11 127.927 11.235C128.21 11.4773 128.493 11.7195 128.784 11.969C133.761 16.3333 137.567 21.5452 140.19 27.6343C140.19 27.8598 140.19 28.0853 140.19 28.3176C140.583 28.1696 140.977 28.0217 141.382 27.8692C151.437 24.6161 161.46 25.9295 170.847 30.3675C171.204 30.5366 171.562 30.7058 171.931 30.88C180.271 35.1537 185.794 42.4847 189.581 50.8666C189.746 51.2309 189.91 51.5951 190.08 51.9703C193.871 61.088 193.619 71.6707 189.894 80.7808C188.107 84.9169 186.125 88.8305 183.109 92.2065C182.872 92.4853 182.634 92.7641 182.389 93.0513C175.78 100.67 167.498 104.713 157.562 105.873C156.994 105.877 156.427 105.877 155.859 105.873C155.861 106.274 155.862 106.675 155.864 107.089C155.901 116.616 155.929 126.142 155.946 135.669C155.948 136.842 155.95 138.014 155.953 139.187C155.953 139.42 155.953 139.654 155.954 139.894C155.961 143.674 155.975 147.454 155.99 151.234C156.006 155.112 156.016 158.991 156.019 162.869C156.021 165.048 156.027 167.226 156.039 169.405C156.051 171.455 156.054 173.504 156.052 175.554C156.052 176.307 156.055 177.06 156.062 177.813C156.07 178.84 156.068 179.867 156.064 180.894C156.069 181.193 156.074 181.491 156.079 181.798C156.06 183.33 155.941 184.647 154.804 185.8C153.253 186.663 151.364 186.438 149.643 186.419C149.174 186.421 148.704 186.424 148.235 186.428C146.945 186.436 145.655 186.431 144.365 186.424C142.973 186.418 141.582 186.425 140.191 186.43C137.465 186.438 134.74 186.434 132.014 186.427C129.799 186.422 127.585 186.42 125.37 186.422C125.055 186.422 124.74 186.422 124.415 186.422C123.775 186.423 123.135 186.423 122.495 186.424C116.492 186.428 110.489 186.42 104.486 186.407C99.3338 186.396 94.1813 186.396 89.0286 186.402C83.0473 186.41 77.0661 186.412 71.0848 186.405C70.4472 186.404 69.8096 186.403 69.172 186.403C68.8582 186.402 68.5445 186.402 68.2213 186.401C66.0087 186.399 63.7962 186.401 61.5837 186.404C58.8879 186.408 56.1922 186.405 53.4965 186.395C52.1206 186.389 50.7449 186.387 49.3691 186.392C48.11 186.396 46.8512 186.393 45.5922 186.383C44.92 186.38 44.2478 186.385 43.5756 186.391C40.3243 186.353 40.3243 186.353 39.2737 185.336C38.2395 183.79 38.2952 182.587 38.3012 180.769C38.3009 180.454 38.3007 180.14 38.3004 179.816C38.2998 178.755 38.3017 177.695 38.3035 176.635C38.3036 175.878 38.3036 175.12 38.3034 174.363C38.3033 172.301 38.3053 170.239 38.3077 168.177C38.3098 166.025 38.31 163.872 38.3104 161.719C38.3113 158.104 38.3135 154.489 38.3165 150.874C38.3196 147.151 38.322 143.427 38.3235 139.703C38.3236 139.474 38.3237 139.244 38.3238 139.008C38.3242 137.857 38.3246 136.706 38.3251 135.555C38.3286 126.002 38.3346 116.45 38.3422 106.898C37.814 106.829 37.814 106.829 37.275 106.758C36.8091 106.697 36.3432 106.636 35.8773 106.574C35.6456 106.544 35.414 106.514 35.1753 106.483C26.7106 105.363 19.5455 101.553 13.4763 95.623C13.4763 95.3975 13.4763 95.172 13.4763 94.9397C13.1391 94.827 12.8019 94.7142 12.4544 94.5981C11.8254 93.8847 11.242 93.1746 10.6661 92.42C10.4994 92.2036 10.3327 91.9872 10.1609 91.7642C3.20284 82.6268 0.00638247 71.6804 0.978198 60.218C1.13043 59.1384 1.32737 58.0826 1.55434 57.0164C1.63777 56.5975 1.72119 56.1787 1.80715 55.7472C3.28531 48.8438 6.72344 42.0885 11.4326 36.8589C11.6912 36.5713 11.9498 36.2837 12.2163 35.9874C18.5146 29.3393 28.3283 24.2264 37.5512 23.8211C38.7494 23.8082 39.9475 23.7972 41.1457 23.7941C41.9074 23.7908 42.6687 23.7802 43.4303 23.7694C47.8425 23.737 51.8921 24.3878 56.0549 25.9261C56.1807 25.5634 56.1807 25.5634 56.309 25.1934C57.7063 22.0019 60.4961 19.1964 62.8674 16.7015C63.1455 16.4086 63.1455 16.4086 63.4293 16.1097C80.0786 -1.31155 107.887 -5.62962 127.134 10.5437ZM86.7114 12.26C86.3009 12.3912 85.8903 12.5225 85.4673 12.6577C80.9106 14.2864 76.8279 16.7187 73.0863 19.7763C72.8215 19.9855 72.5567 20.1947 72.2839 20.4102C65.9464 25.6868 61.0803 34.4944 60.1424 42.667C59.7648 48.717 59.7401 55.2342 61.8788 60.9734C62.1497 61.7013 62.3562 62.4093 62.5268 63.1661C61.7577 63.397 61.7577 63.397 60.8237 63.5077C56.5021 61.1535 54.2706 55.3032 52.8774 50.8426C51.5741 46.2324 51.4314 41.263 52.5041 36.5939C52.6911 35.7392 52.6911 35.7392 52.6486 34.4673C49.5233 33.8956 46.4988 33.6625 43.3239 33.6773C42.8894 33.6792 42.4548 33.6811 42.0071 33.6831C33.181 33.7974 25.4526 37.0756 19.267 43.3503C18.9899 43.6247 18.7129 43.899 18.4274 44.1817C12.7337 50.1268 10.5591 58.0753 10.6324 66.1445C10.8602 75.1367 13.783 83.4515 20.2889 89.8149C27.3719 96.4836 36.112 98.3239 45.5523 98.0626C49.6074 97.8607 53.5941 97.1648 57.448 95.8859C58.7409 95.543 59.9401 95.3507 61.1643 95.9647C61.1337 97.468 60.9549 98.3862 59.9295 99.5093C58.7464 100.587 57.4343 101.448 56.0762 102.285C55.7935 102.461 55.7935 102.461 55.5052 102.641C53.0567 104.087 50.5218 105.055 47.8798 106.214C47.8798 120.082 47.8798 133.949 47.8798 148.237C51.814 148.237 55.7483 148.237 59.8018 148.237C59.8145 146.617 59.8272 144.996 59.8404 143.326C59.8507 142.295 59.8613 141.265 59.873 140.234C59.8914 138.6 59.9088 136.967 59.9198 135.333C59.9287 134.015 59.9425 132.697 59.9596 131.379C59.9652 130.877 59.9691 130.376 59.9713 129.875C59.9999 123.781 59.9999 123.781 61.8456 121.93C63.8026 121.712 63.8026 121.712 64.5706 121.93C69.0748 129.46 65.8115 139.457 65.9331 148.237C92.3488 148.237 118.765 148.237 145.981 148.237C146.066 131.402 146.066 131.402 146.144 114.567C146.162 111.318 146.162 111.318 146.172 109.798C146.178 108.733 146.183 107.667 146.186 106.602C146.19 105.245 146.198 103.888 146.208 102.531C146.211 102.032 146.213 101.533 146.214 101.033C146.215 100.361 146.221 99.6893 146.227 99.0173C146.228 98.6401 146.23 98.2628 146.232 97.874C146.321 96.9896 146.321 96.9896 147.003 96.3063C148.027 96.2396 148.027 96.2396 149.334 96.2636C149.567 96.2662 149.8 96.2688 150.04 96.2714C151.035 96.2826 152.031 96.3016 153.026 96.3203C155.857 96.3691 158.554 96.3776 161.309 95.623C161.662 95.5301 162.016 95.4372 162.38 95.3414C166.273 94.0781 169.817 92.1952 172.89 89.4733C173.163 89.2324 173.435 88.9915 173.715 88.7433C179.269 83.5106 182.928 76.1937 183.19 68.5177C183.268 64.2643 183.083 60.3857 181.747 56.3331C181.674 56.11 181.601 55.8869 181.526 55.6571C179.117 48.5477 174.131 42.5113 167.419 39.1224C165.434 38.1591 163.475 37.3196 161.309 36.8589C160.995 36.7898 160.681 36.7206 160.358 36.6494C155.353 35.7141 150.2 35.8209 145.299 37.2006C144.942 37.2917 144.584 37.3829 144.215 37.4768C136.895 39.4989 130.13 44.0275 125.128 49.7176C124.33 50.3302 123.798 50.2725 122.818 50.1833C122.411 44.8803 125.695 39.8263 128.961 35.902C129.936 34.8081 130.951 33.7658 132.015 32.7591C130.733 28.5804 128.084 25.347 125.202 22.1679C124.823 21.7444 124.823 21.7444 124.436 21.3124C122.434 19.1905 120.14 17.5951 117.709 16.0182C117.413 15.8239 117.117 15.6297 116.812 15.4296C107.785 9.73819 96.7401 9.03515 86.7114 12.26Z" fill="#4A2D20"/>
<path d="M47.8076 167.526C47.8076 162.556 51.837 158.459 56.8076 158.459C83.2354 158.459 109.724 158.459 136.807 158.459C141.778 158.459 145.808 162.421 145.808 167.391C145.808 172.362 141.778 176.459 136.808 176.459C110.38 176.459 83.8914 176.459 56.8079 176.459C51.8373 176.459 47.8076 172.497 47.8076 167.526Z" fill="#F00048"/>
</svg>
