<svg width="83" height="84" viewBox="0 0 83 84" fill="none" xmlns="http://www.w3.org/2000/svg">
<path fill-rule="evenodd" clip-rule="evenodd" d="M59.0869 23.5012C58.0211 24.2413 56.8402 24.7646 55.5444 25.0716C55.6287 25.1666 55.7132 25.262 55.7975 25.3571C54.7889 25.4996 53.7768 25.5472 52.7611 25.4998C52.5552 26.8187 52.4709 28.1512 52.5081 29.4971C52.1303 31.6782 51.793 33.8673 51.496 36.0641C50.0664 35.6395 48.6327 35.2112 47.1945 34.7792C45.6745 34.6582 44.1564 34.5154 42.6399 34.351C42.2181 34.446 41.7966 34.5414 41.3748 34.6365C44.8026 34.9106 47.9235 36.1003 50.7369 38.2055C51.0742 38.491 51.0742 38.7765 50.7369 39.062C49.1484 39.9863 47.4614 40.5573 45.6763 40.7751C41.9423 41.0752 38.2312 40.8848 34.543 40.2041C33.7171 39.8846 33.0423 39.3613 32.5188 38.6337C31.8017 35.6364 31.2956 32.5907 31.0006 29.4971C30.8867 28.1546 30.718 26.8224 30.4945 25.4998C29.3949 25.5472 28.2985 25.4996 27.2052 25.3571C26.6374 24.7287 25.9625 24.3004 25.1809 24.0722C24.6189 23.4461 24.2816 22.6846 24.1688 21.7881C23.7346 21.6462 23.3128 21.5508 22.9037 21.5026C22.4416 20.3117 22.0198 19.1696 21.6385 18.0763C20.9495 15.3998 21.4556 13.0205 23.1567 10.9383C24.1615 10.1904 25.2578 9.57179 26.4461 9.08247C27.7084 8.93991 28.9736 8.89234 30.2415 8.93971C30.3731 10.3771 30.5839 11.8047 30.8741 13.2225C31.0745 13.9667 31.454 14.5377 32.0127 14.9356C32.6706 16.0009 33.5562 16.7624 34.6695 17.2198C34.796 17.1247 34.9225 17.0293 35.0491 16.9343C33.6326 15.6668 32.6625 14.0489 32.1392 12.0804C31.4196 5.85084 33.7391 1.90117 39.0975 0.231362C43.3031 -0.571062 46.8876 0.713776 49.8513 4.08588C51.6675 7.25474 51.9206 10.5858 50.6104 14.0791C49.8513 14.9356 49.0922 15.7922 48.3331 16.6487C48.159 16.8863 48.2013 17.0764 48.4596 17.2198C50.2508 16.4143 51.4737 14.9867 52.1285 12.937C52.5025 11.4401 52.7136 9.91733 52.7611 8.36867C59.1261 7.89005 62.2044 11.2211 61.9967 18.3619C61.7161 19.5665 61.2945 20.7085 60.7316 21.7881C60.3432 22.5858 59.7948 23.1569 59.0869 23.5012Z" fill="#FC7D7F"/>
<path fill-rule="evenodd" clip-rule="evenodd" d="M32.0128 14.9358C31.4541 14.5379 31.0745 13.9668 30.8741 13.2226C30.5839 11.8048 30.3731 10.3772 30.2416 8.93985C28.9736 8.89248 27.7085 8.94005 26.4461 9.08261C25.2579 9.57193 24.1615 10.1906 23.1567 10.9385C25.1721 8.61127 27.6182 7.80231 30.4946 8.51157C30.6649 10.7667 31.1709 12.9081 32.0128 14.9358Z" fill="#D47F8F"/>
<path fill-rule="evenodd" clip-rule="evenodd" d="M21.6386 18.0763C22.0199 19.1695 22.4417 20.3116 22.9037 21.5025C23.3129 21.5508 23.7347 21.6461 24.1689 21.788C24.2817 22.6846 24.619 23.4461 25.181 24.0722C25.9626 24.3003 26.6374 24.7286 27.2052 25.357C28.2986 25.4995 29.3949 25.5472 30.4946 25.4998C30.718 26.8223 30.8868 28.1546 31.0007 29.4971C30.6323 28.5186 30.3792 27.4716 30.2416 26.3564C26.5446 26.1525 23.8035 24.2492 22.0181 20.646C21.7274 19.82 21.6009 18.9634 21.6386 18.0763Z" fill="#E17C8B"/>
<path fill-rule="evenodd" clip-rule="evenodd" d="M48.9657 25.2144C44.2601 22.2496 39.5368 22.2019 34.7961 25.0717C33.7136 25.9785 33.7981 26.2163 35.0491 25.7855C35.0491 26.071 35.0491 26.3565 35.0491 26.642C33.9788 26.833 33.515 26.3571 33.6574 25.2144C37.7909 22.3766 42.2189 21.8533 46.9415 23.6441C47.7175 24.0406 48.3921 24.564 48.9657 25.2144Z" fill="#25396E"/>
<path fill-rule="evenodd" clip-rule="evenodd" d="M59.0869 23.5012C58.9764 23.9506 58.7233 24.2838 58.3279 24.5005C56.7841 25.5541 55.0972 26.1251 53.2673 26.2137C52.9553 27.3206 52.7022 28.4153 52.5082 29.4971C52.471 28.1512 52.5552 26.8187 52.7612 25.4999C53.7769 25.5473 54.789 25.4996 55.7976 25.3571C55.7133 25.262 55.6288 25.1667 55.5445 25.0716C56.8403 24.7646 58.0212 24.2413 59.0869 23.5012Z" fill="#DB7E8F"/>
<path fill-rule="evenodd" clip-rule="evenodd" d="M26.9522 35.2075C18.8431 36.0349 10.8307 37.4148 2.91443 39.3475C9.24345 36.729 15.7377 34.7781 22.3977 33.4944C23.9073 33.224 25.4254 33.0336 26.9522 32.9233C26.9522 33.6848 26.9522 34.446 26.9522 35.2075Z" fill="white"/>
<path fill-rule="evenodd" clip-rule="evenodd" d="M58.0748 32.9233C58.866 33.232 59.7094 33.4221 60.6051 33.4944C62.2829 33.8416 63.9699 34.1271 65.6657 34.3509C66.2742 34.713 66.949 34.9034 67.6899 34.922C72.0261 36.2239 76.3276 37.6992 80.5944 39.3475C72.5863 37.4451 64.4893 36.0652 56.3036 35.2075C56.3036 34.446 56.3036 33.6848 56.3036 32.9233C56.8939 32.9233 57.4845 32.9233 58.0748 32.9233Z" fill="white"/>
<path fill-rule="evenodd" clip-rule="evenodd" d="M39.6037 45.7718C39.6037 49.2931 39.6037 52.8147 39.6037 56.336C40.0285 56.3974 40.2816 56.2069 40.3628 55.765C41.7479 53.3169 43.6878 52.365 46.1825 52.9098C47.4835 54.5926 47.4835 56.3057 46.1825 58.0491C45.6192 58.7229 44.9867 59.294 44.2847 59.7622C45.3887 63.9125 47.3709 67.4815 50.2309 70.4692C50.99 70.7547 51.7491 71.0403 52.5082 71.3258C50.6527 72.2774 48.797 72.2774 46.9416 71.3258C45.7187 70.3265 44.6643 69.1367 43.7787 67.7568C42.6216 65.4786 41.5672 63.1468 40.6158 60.7615C41.7572 59.6623 42.7271 58.3775 43.5257 56.907C43.7015 56.2726 43.9123 55.6539 44.1582 55.0512C44.0446 54.3993 43.7071 53.971 43.1461 53.7663C42.3468 53.9533 41.7142 54.4293 41.2484 55.1939C40.6743 56.2041 40.1682 57.2511 39.7302 58.3346C39.6877 61.0996 39.5612 63.8597 39.3507 66.6147C38.2318 67.3993 37.1777 67.3042 36.1878 66.3292C36.1035 59.7622 36.019 53.1953 35.9348 46.6283C35.6385 46.2306 35.2589 45.9925 34.7961 45.9145C36.436 44.7042 38.0385 44.6565 39.6037 45.7718Z" fill="white"/>
<path fill-rule="evenodd" clip-rule="evenodd" d="M6.70982 65.7582C6.50461 59.8696 6.37809 53.9691 6.33027 48.056C5.91328 47.6197 5.40722 47.4292 4.81209 47.4849C4.16839 47.4381 3.62025 47.6285 3.1674 48.056C1.56292 48.8637 1.05686 50.1485 1.64923 51.9105C2.48848 52.0527 3.3319 52.1003 4.17952 52.0532C3.98216 55.0204 2.75914 55.6868 0.510595 54.0519C-0.529154 51.4642 0.0190597 49.4179 2.15529 47.9132C5.92568 46.3583 9.80538 45.8823 13.7946 46.4856C17.1346 47.3122 18.189 49.5489 16.9575 53.1953C16.308 54.1178 15.5066 54.8316 14.5537 55.3367C18.7497 56.76 19.9304 59.6629 18.0961 64.0451C17.0787 65.9703 15.5605 66.9696 13.5416 67.043C12.1922 67.2335 10.8425 67.2335 9.49314 67.043C8.44838 66.8583 7.52077 66.43 6.70982 65.7582Z" fill="white"/>
<path fill-rule="evenodd" clip-rule="evenodd" d="M82.1126 52.3387C82.3866 52.3499 82.6397 52.4452 82.8717 52.6243C83.4451 58.7507 82.0957 64.2706 78.8232 69.1844C76.7008 72.0482 74.0018 73.4284 70.7263 73.3244C69.5831 72.7942 69.4566 72.0804 70.3467 71.183C71.4004 72.6595 72.7078 72.9924 74.2687 72.1824C75.4081 71.2284 76.5045 70.2291 77.5581 69.1844C76.2876 64.0739 74.6429 59.125 72.624 54.3374C72.2245 53.8974 71.7604 53.5642 71.2323 53.3381C72.9785 52.2628 74.6232 52.4056 76.1664 53.7663C77.7777 57.3271 79.0429 61.0388 79.9619 64.9016C81.8796 61.0268 82.3434 56.9345 81.3535 52.6243C81.6802 52.6919 81.9332 52.5969 82.1126 52.3387Z" fill="white"/>
<path fill-rule="evenodd" clip-rule="evenodd" d="M25.181 52.6242C26.5332 52.5768 27.8826 52.6245 29.2295 52.7669C30.6388 53.3108 31.5244 54.4055 31.8863 56.0504C32.0128 59.2848 32.055 62.5209 32.0128 65.7581C32.3602 65.7132 32.6977 65.7609 33.0249 65.9008C31.1897 67.7396 29.5872 67.5015 28.2173 65.187C26.4684 67.3724 24.5287 67.6579 22.3977 66.0436C21.1267 63.5644 21.5482 61.5181 23.6628 59.9049C24.8222 59.2468 26.0031 58.6758 27.2052 58.1918C28.1564 57.1231 28.4516 55.8383 28.0908 54.3373C26.9755 53.3594 25.7526 53.2166 24.4219 53.909C23.6661 54.825 23.8349 55.3483 24.928 55.4794C24.928 56.0504 24.928 56.6214 24.928 57.1925C22.7048 57.3175 22.1565 56.2708 23.2833 54.0518C23.927 53.5473 24.5596 53.0713 25.181 52.6242Z" fill="white"/>
<path fill-rule="evenodd" clip-rule="evenodd" d="M54.0264 52.6241C55.2192 52.5308 56.3998 52.6261 57.5688 52.9096C59.1649 53.7462 59.5022 55.0311 58.5809 56.7642C56.7882 57.9899 54.975 59.1797 53.1408 60.3332C52.9766 63.3882 54.2417 65.1013 56.9362 65.4725C57.7821 65.4671 58.5412 65.1816 59.2135 64.616C59.2547 65.1547 59.0437 65.583 58.5809 65.9008C55.1893 68.057 52.2795 67.4383 49.8514 64.0449C48.2123 58.7854 49.6039 54.9785 54.0264 52.6241Z" fill="white"/>
<path fill-rule="evenodd" clip-rule="evenodd" d="M66.1718 56.336C65.9982 59.7342 65.8297 63.1605 65.6658 66.6147C64.452 67.4721 63.3133 67.3767 62.2499 66.3292C62.1233 62.238 62.0811 58.1453 62.1233 54.0518C60.259 54.0738 60.259 53.6455 62.1233 52.767C64.3399 52.0364 65.6473 52.9406 66.0453 55.4794C66.7229 54.5723 67.44 53.7158 68.196 52.9098C70.4424 52.3581 71.075 53.3098 70.0938 55.765C69.9991 55.5034 69.8726 55.2653 69.7142 55.0512C68.2353 54.5689 67.0544 54.9972 66.1718 56.336Z" fill="white"/>
<path fill-rule="evenodd" clip-rule="evenodd" d="M53.5204 59.1912C53.0391 58.3812 52.8703 57.4292 53.0143 56.336C53.0535 54.4347 53.8971 53.6255 55.5446 53.9091C56.5491 55.279 56.5491 56.6592 55.5446 58.0491C54.9234 58.5622 54.2486 58.9428 53.5204 59.1912Z" fill="#283B69"/>
<path fill-rule="evenodd" clip-rule="evenodd" d="M11.2645 46.9138C12.2981 46.9021 13.0994 47.3778 13.6683 48.3414C15.0754 51.5852 14.3583 53.9647 11.5175 55.4794C14.0263 56.2343 15.2072 58.0902 15.0599 61.047C15.0521 62.5211 14.757 63.9013 14.1743 65.187C13.2272 66.2603 12.0886 66.5935 10.7584 66.1864C10.3779 65.7606 10.1671 65.2373 10.1258 64.616C9.95707 59.1911 9.95707 53.7663 10.1258 48.3414C10.3852 47.717 10.7647 47.241 11.2645 46.9138Z" fill="#2A3D6B"/>
<path fill-rule="evenodd" clip-rule="evenodd" d="M53.0143 56.3361C52.8703 57.4293 53.0391 58.3812 53.5203 59.1913C53.3409 59.4494 53.0879 59.5444 52.7612 59.4768C52.6815 58.3715 52.7658 57.3245 53.0143 56.3361Z" fill="white"/>
<path fill-rule="evenodd" clip-rule="evenodd" d="M26.4461 58.9057C27.026 58.8326 27.5743 58.9276 28.0907 59.1912C28.2595 60.9043 28.2595 62.6174 28.0907 64.3305C27.4989 65.5763 26.6976 65.7667 25.687 64.9016C24.8292 62.7633 25.0822 60.7647 26.4461 58.9057Z" fill="#354671"/>
<path fill-rule="evenodd" clip-rule="evenodd" d="M55.7975 79.7486C56.4991 80.0789 57.2582 80.2694 58.0747 80.3196C62.0238 80.865 65.988 81.0077 69.9671 80.7479C73.111 80.2417 76.1474 79.3851 79.0762 78.1782C76.5292 80.3756 73.6616 81.8032 70.4732 82.461C66.5269 83.2288 62.5627 83.3715 58.5808 82.8893C56.431 82.4336 54.2383 82.053 52.002 81.7472C48.7298 80.8938 45.4405 80.1326 42.1339 79.4631C41.6435 78.9882 41.0529 78.7981 40.3627 78.892C31.1306 76.169 21.7685 75.3599 12.2764 76.4651C10.0816 77.1121 7.88861 77.6831 5.69763 78.1782C12.2898 74.4436 19.2901 73.1114 26.6991 74.1809C29.1598 74.3283 31.6056 74.6138 34.0369 75.0375C41.229 76.8677 48.4824 78.438 55.7975 79.7486Z" fill="white"/>
</svg>
