<svg width="60" height="48" viewBox="0 0 60 48" fill="none" xmlns="http://www.w3.org/2000/svg">
<path fill-rule="evenodd" clip-rule="evenodd" d="M18.87 47.9994C41.511 47.9994 53.895 29.5301 53.895 13.5155C53.895 12.9897 53.895 12.468 53.859 11.9481C56.268 10.235 58.347 8.10797 60 5.67419C57.756 6.6548 55.371 7.29789 52.932 7.58142C55.5 6.06621 57.423 3.68573 58.344 0.876826C55.926 2.28866 53.283 3.28507 50.526 3.8197C45.864 -1.05971 38.067 -1.29612 33.108 3.29382C29.913 6.25335 28.554 10.666 29.547 14.8749C19.65 14.3846 10.428 9.7829 4.176 2.21276C0.909001 7.75079 2.58 14.8329 7.989 18.389C6.03 18.3329 4.113 17.8136 2.4 16.8744V17.0282C2.403 22.7967 6.534 27.7636 12.276 28.9066C10.464 29.394 8.562 29.4646 6.72 29.1132C8.331 34.0516 12.954 37.4341 18.219 37.5316C13.86 40.9047 8.475 42.7362 2.931 42.7303C1.953 42.7274 0.975 42.6712 0 42.556C5.631 46.1122 12.18 47.9994 18.87 47.9906" fill="white"/>
</svg>
